<svg id="visual" viewBox="0 0 900 600" width="900" height="600" xmlns="http://www.w3.org/2000/svg" xmlns:xlink="http://www.w3.org/1999/xlink" version="1.1"><rect x="0" y="0" width="900" height="600" fill="#450693"></rect><defs><linearGradient id="grad1_0" x1="33.3%" y1="0%" x2="100%" y2="100%"><stop offset="20%" stop-color="#450693" stop-opacity="1"></stop><stop offset="80%" stop-color="#450693" stop-opacity="1"></stop></linearGradient></defs><defs><linearGradient id="grad2_0" x1="0%" y1="0%" x2="66.7%" y2="100%"><stop offset="20%" stop-color="#450693" stop-opacity="1"></stop><stop offset="80%" stop-color="#450693" stop-opacity="1"></stop></linearGradient></defs><g transform="translate(900, 0)"><path d="M0 243.4C-9.8 230.8 -19.6 218.3 -31.5 218.8C-43.3 219.2 -57.3 232.7 -68.6 233.5C-79.9 234.3 -88.6 222.4 -98 214.7C-107.5 206.9 -117.7 203.3 -127.1 197.7C-136.4 192.1 -144.8 184.5 -153.9 177.6C-163 170.7 -172.6 164.5 -180.6 156.5C-188.6 148.5 -195 138.6 -199.4 128.1C-203.8 117.6 -206.3 106.4 -209.2 95.5C-212.1 84.7 -215.5 74.1 -215.9 63.4C-216.3 52.7 -213.7 41.9 -217.8 31.3C-221.8 20.7 -232.6 10.4 -243.4 0L0 0Z" fill="#0046ff"></path></g><g transform="translate(0, 600)"><path d="M0 -243.4C11.4 -242.5 22.8 -241.6 34.6 -240.9C46.5 -240.2 58.8 -239.5 68.2 -232.2C77.6 -224.8 84.2 -210.8 92.6 -202.8C101.1 -194.9 111.4 -193.2 122.7 -191C134 -188.7 146.2 -185.9 155.2 -179.1C164.2 -172.3 169.9 -161.6 173.8 -150.6C177.7 -139.7 179.8 -128.6 186.8 -120C193.7 -111.5 205.6 -105.4 210.1 -96C214.6 -86.5 211.7 -73.7 214 -62.8C216.3 -52 223.9 -43.2 229.6 -33C235.4 -22.9 239.4 -11.4 243.4 0L0 0Z" fill="#0046ff"></path></g></svg>