<svg id="visual" viewBox="0 0 900 600" width="900" height="600" xmlns="http://www.w3.org/2000/svg" xmlns:xlink="http://www.w3.org/1999/xlink" version="1.1"><path d="M0 163L82 163L82 133L164 133L164 151L245 151L245 103L327 103L327 163L409 163L409 181L491 181L491 217L573 217L573 181L655 181L655 151L736 151L736 205L818 205L818 289L900 289L900 151L900 0L900 0L818 0L818 0L736 0L736 0L655 0L655 0L573 0L573 0L491 0L491 0L409 0L409 0L327 0L327 0L245 0L245 0L164 0L164 0L82 0L82 0L0 0Z" fill="#0046ff"></path><path d="M0 241L82 241L82 193L164 193L164 211L245 211L245 139L327 139L327 229L409 229L409 223L491 223L491 277L573 277L573 265L655 265L655 217L736 217L736 265L818 265L818 331L900 331L900 187L900 149L900 287L818 287L818 203L736 203L736 149L655 149L655 179L573 179L573 215L491 215L491 179L409 179L409 161L327 161L327 101L245 101L245 149L164 149L164 131L82 131L82 161L0 161Z" fill="#3437e3"></path><path d="M0 301L82 301L82 289L164 289L164 277L245 277L245 259L327 259L327 355L409 355L409 313L491 313L491 337L573 337L573 337L655 337L655 289L736 289L736 367L818 367L818 421L900 421L900 301L900 185L900 329L818 329L818 263L736 263L736 215L655 215L655 263L573 263L573 275L491 275L491 221L409 221L409 227L327 227L327 137L245 137L245 209L164 209L164 191L82 191L82 239L0 239Z" fill="#4128c7"></path><path d="M0 493L82 493L82 493L164 493L164 517L245 517L245 457L327 457L327 475L409 475L409 523L491 523L491 427L573 427L573 481L655 481L655 505L736 505L736 469L818 469L818 541L900 541L900 439L900 299L900 419L818 419L818 365L736 365L736 287L655 287L655 335L573 335L573 335L491 335L491 311L409 311L409 353L327 353L327 257L245 257L245 275L164 275L164 287L82 287L82 299L0 299Z" fill="#4519ac"></path><path d="M0 601L82 601L82 601L164 601L164 601L245 601L245 601L327 601L327 601L409 601L409 601L491 601L491 601L573 601L573 601L655 601L655 601L736 601L736 601L818 601L818 601L900 601L900 601L900 437L900 539L818 539L818 467L736 467L736 503L655 503L655 479L573 479L573 425L491 425L491 521L409 521L409 473L327 473L327 455L245 455L245 515L164 515L164 491L82 491L82 491L0 491Z" fill="#450693"></path></svg>